M48
;Layer_Color=9474304
;FILE_FORMAT=2:5
INCH,TZ
;TYPE=PLATED
T1F00S00C0.03543
%
T01
X6000Y34000
Y44000
X59500Y16500
X69500
X79500
X89500
X135500Y34000
Y44000
Y54000
Y64000
Y74000
Y84000
Y94000
Y104000
Y114000
Y124000
Y134000
Y144000
Y154000
X112500Y169500
X102500
X92500
X82500
X72500
X62500
X52500
X42500
X32500
X6000Y154000
Y144000
Y134000
Y124000
Y114000
Y104000
Y94000
Y84000
Y74000
Y64000
Y54000
M30
